<svg
            width="120"
            height="121"
            viewBox="0 0 120 121"
            fill="none"
            xmlns="http://www.w3.org/2000/svg"
          >
            <path
              d="M104.804 18.4487C104.543 18.2965 104.239 18.2748 103.956 18.4052L75.5434 32.0356L16.0216 3.47041C15.7607 3.33998 15.4347 3.36172 15.1738 3.51389C14.9129 3.66606 14.7607 3.94867 14.7607 4.25302V74.7965C14.7607 75.1443 14.9781 75.4704 15.3042 75.6008L46.5651 88.6878C46.6738 88.7313 46.7825 88.753 46.8912 88.753V116.862C46.8912 117.166 47.0434 117.449 47.3042 117.601C47.4347 117.688 47.6086 117.731 47.7607 117.731C47.8912 117.731 48.0216 117.71 48.1303 117.644L104.674 90.5139C104.978 90.3617 105.174 90.0574 105.174 89.7313V19.1661C105.217 18.8835 105.065 18.6008 104.804 18.4487ZM16.5216 74.2095V5.64432L73.5433 32.9921L56.5434 41.1443C56.4564 41.0139 56.3477 40.9052 56.1955 40.84L29.5868 28.7313C29.152 28.5356 28.6303 28.7313 28.4347 29.1661C28.239 29.6008 28.4347 30.1226 28.8694 30.3182L54.652 42.0574L47.4129 45.5356C47.1086 45.6878 46.9129 45.9921 46.9129 46.3182V52.0139L29.5216 45.0139C29.0651 44.84 28.5651 45.0574 28.3912 45.4921C28.2173 45.9269 28.4347 46.4487 28.8694 46.6226L46.9129 53.8835V68.2965L29.5216 61.2965C29.0651 61.1226 28.5651 61.34 28.3912 61.7748C28.2173 62.2095 28.4347 62.7313 28.8694 62.9052L46.9129 70.1661V86.9487L16.5216 74.2095ZM103.478 89.1661L48.6738 115.47V69.5356V53.253V46.8617L103.478 20.5574V89.1661ZM60.5868 59.753C60.3694 59.3182 60.5651 58.7965 60.9999 58.6008L90.4129 44.3835C90.8477 44.1661 91.3694 44.3617 91.5651 44.7965C91.7825 45.2313 91.5868 45.753 91.152 45.9487L61.739 60.1661C61.6086 60.2313 61.4781 60.253 61.3694 60.253C61.0434 60.253 60.7173 60.0791 60.5868 59.753ZM60.5868 76.0356C60.3694 75.6008 60.5651 75.0791 60.9999 74.8834L90.4129 60.6661C90.8477 60.4487 91.3694 60.6443 91.5651 61.0791C91.7825 61.5139 91.5868 62.0356 91.152 62.2313L61.739 76.4487C61.6086 76.5139 61.4781 76.5356 61.3694 76.5356C61.0434 76.5356 60.7173 76.34 60.5868 76.0356ZM60.5868 92.3182C60.3694 91.8835 60.5651 91.3617 60.9999 91.1661L90.4129 76.9487C90.8477 76.7313 91.3694 76.9269 91.5651 77.3617C91.7825 77.7965 91.5868 78.3182 91.152 78.5139L61.739 92.7313C61.6086 92.7965 61.4781 92.8182 61.3694 92.8182C61.0434 92.8182 60.7173 92.6226 60.5868 92.3182Z"
              fill="white"
            />
          </svg>